<svg xmlns="http://www.w3.org/2000/svg" width="400" height="400"><defs><linearGradient id="a" x1="0%" y1="8%" x2="100%" y2="92%"><stop offset="10%" style="stop-color:#fc420f;stop-opacity:1"/><stop offset="100%" style="stop-color:#f88c0d;stop-opacity:1"/></linearGradient></defs><path style="fill:url(#a)" d="M187.67 1.132c-12.592 3.049-26.059 13.861-31.677 25.431-5.525 11.38-5.212 4.579-5.212 113.069v97.898l-2.148-.525c-14.513-3.543-26.123-15.109-29.486-29.373-.933-3.957-1.157-12.03-1.167-42.038-.009-30.821-.215-37.923-1.209-41.739-8.239-31.633-51.715-35.648-65.834-6.079l-2.89 6.052-.227 41.893c-.291 53.597.555 59.969 10.721 80.763 17.212 35.206 47.407 56.255 88.529 61.713l3.711.492V400h98.438V251.658l3.711-.46c40.391-5.004 71.586-26.756 88.547-61.745 10.167-20.973 10.993-27.211 10.703-80.763l-.227-41.893-2.823-5.911c-14.194-29.72-57.652-25.732-65.931 6.051-.956 3.673-1.17 11.213-1.179 41.626-.013 40.898-.217 43.109-4.774 51.658-5.048 9.471-19.614 20.248-27.368 20.248-.363 0-.659-31.215-.659-69.367 0-59.396-.17-70.037-1.184-74.024-6.642-26.128-33.893-42.356-60.365-35.946"/></svg>