<svg id="svg" xmlns="http://www.w3.org/2000/svg" xmlns:xlink="http://www.w3.org/1999/xlink" width="400" height="400" viewBox="0, 0, 400, 400">
<defs>
<linearGradient id="lgrad" x1="0%" y1="8%" x2="100%" y2="92%">
<stop offset="10%" style="stop-color:rgb(252,66,15);stop-opacity:1.00"/>
<stop offset="100%" style="stop-color:rgb(248,140,13);stop-opacity:1.00"/>
</linearGradient>
</defs>
<path style="fill:url(#lgrad);" d="M187.670 1.132 C 175.078 4.181,161.611 14.993,155.993 26.563 C 150.468 37.943,150.781 31.142,150.781 139.632 L 150.781 237.530 148.633 237.005 C 134.120 233.462,122.510 221.896,119.147 207.632 C 118.214 203.675,117.990 195.602,117.980 165.594 C 117.971 134.773,117.765 127.671,116.771 123.855 C 108.532 92.222,65.056 88.207,50.937 117.776 L 48.047 123.828 47.820 165.721 C 47.529 219.318,48.375 225.690,58.541 246.484 C 75.753 281.690,105.948 302.739,147.070 308.197 L 150.781 308.689 150.781 354.345 L 150.781 400.000 200.000 400.000 L 249.219 400.000 249.219 325.829 L 249.219 251.658 252.930 251.198 C 293.321 246.194,324.516 224.442,341.477 189.453 C 351.644 168.480,352.470 162.242,352.180 108.690 L 351.953 66.797 349.130 60.886 C 334.936 31.166,291.478 35.154,283.199 66.937 C 282.243 70.610,282.029 78.150,282.020 108.563 C 282.007 149.461,281.803 151.672,277.246 160.221 C 272.198 169.692,257.632 180.469,249.878 180.469 C 249.515 180.469,249.219 149.254,249.219 111.102 C 249.219 51.706,249.049 41.065,248.035 37.078 C 241.393 10.950,214.142 -5.278,187.670 1.132">
</path>
</svg>