<svg xmlns="http://www.w3.org/2000/svg" width="400" height="400"><defs><linearGradient id="a" x1="0%" y1="8%" x2="100%" y2="92%"><stop offset="10%" style="stop-color:#fc420f;stop-opacity:1"/><stop offset="100%" style="stop-color:#f88c0d;stop-opacity:1"/></linearGradient></defs><path style="fill:url(#a)" d="M169.141 16.956c0 46.499-21.455 94.818-69.438 156.385-7.003 8.986-7.271 8.998-7.438.332-.261-13.613-4.305-32.346-9.788-45.335-5.76-13.645-6.05-13.829-7.215-4.553-2.017 16.064-6.51 28.356-22.147 60.59-21.51 44.342-26.11 58.863-27.103 85.547-1.855 49.873 25.114 87.611 89.827 125.697 9.721 5.721 9.608 5.823 5.158-4.677-16.285-38.427-14.145-67.194 7.491-100.708 17.559-27.199 25.468-43.76 30.949-64.808l1.822-6.996 3.722 7.777c6.334 13.233 9.378 32.976 7.042 45.668-1.011 5.491-.607 5.788 2.659 1.953 19.173-22.509 31.379-59.978 30.668-94.141l-.272-13.072 4.688 3.578c64.373 49.145 89.597 147.267 56.952 221.552-4.066 9.253-4.092 9.193 2.372 5.578 83.145-46.497 119.38-117.793 99.619-196.009-10.57-41.839-44.852-98.071-75.172-123.304-5.646-4.698-5.669-4.683-3.223 2.056 8.056 22.194 5.693 47.895-5.693 61.926-3.533 4.354-3.467 4.396-5.618-3.519-12.566-46.239-39.851-90.476-71.581-116.051C195.08 12.474 177.918 2.073 171.094.406l-1.953-.478v17.028"/></svg>