<svg xmlns="http://www.w3.org/2000/svg" width="400" height="400"><defs><linearGradient id="a" x1="0%" y1="8%" x2="100%" y2="92%"><stop offset="0%" style="stop-color:#12d3bc;stop-opacity:1"/><stop offset="85%" style="stop-color:#0074ff;stop-opacity:1"/></linearGradient></defs><path style="fill:url(#a)" d="m190.836 5.278-7.991 5.269-.016 25.976c-.009 14.288-.149 25.977-.31 25.977s-6.217-3.516-13.456-7.812c-15.533-9.22-12.839-8.769-20.989-3.512l-6.668 4.302v19.31l20.703 12.402 20.704 12.402v16.61c0 9.136-.142 16.611-.316 16.611-.173 0-7.181-3.692-15.572-8.204-8.391-4.511-15.625-8.203-16.076-8.203-.541 0-.891 5.94-1.03 17.494l-.21 17.494-14.453-8.362-14.453-8.361-.205-25.746-.206-25.746-8.199-4.917-8.198-4.916-6.229 4.82-6.23 4.819-.21 16.728-.21 16.728-22.876-12.908c-26.656-15.041-22.533-14.012-33.96-8.475L25 99.506v22.212l22.545 12.41 22.546 12.409-14.147 7.916-14.147 7.916v20.728l8.319 3.852 8.319 3.851 21.587-12.642 21.587-12.643 14.382 8.393 14.382 8.394-14.21 8.863c-7.815 4.875-14.314 9.17-14.441 9.544-.127.373 6.641 4.634 15.041 9.468l15.273 8.789-14.634 8.439-14.635 8.439-2.36-1.44c-1.298-.791-11.057-6.549-21.687-12.794l-19.326-11.356-8.994 4.751-8.994 4.75v20.081l14.939 7.477 14.939 7.478-22.947 12.776-22.946 12.776-.216 11.255-.215 11.255 10.16 4.134 10.161 4.134 23.063-12.902 23.062-12.901V318.573l5.493 4.494c6.281 5.138 5.389 5.212 14.259-1.192l5.95-4.297.04-25.098.04-25.098 15.919-8.301c8.756-4.565 16.139-8.3 16.407-8.3.267 0 .486 8.086.486 17.969 0 9.883.143 17.969.317 17.969.175 0 6.943-4.075 15.039-9.056 8.097-4.98 15.337-9.387 16.089-9.793 1.283-.692 1.367.295 1.368 15.9v16.638l-20.704 12.402-20.703 12.402.021 9.855.02 9.855 6.409 3.906c3.526 2.149 6.769 4.002 7.207 4.118.438.117 6.729-3.311 13.979-7.617 7.251-4.306 13.316-7.829 13.477-7.829.161 0 .3 11.689.307 25.977l.014 25.976 8.031 5.274c9.741 6.396 8.319 6.396 18.178 0l8.127-5.274.006-25.976c.003-14.288.138-25.977.299-25.977.161 0 6.217 3.516 13.456 7.813 15.466 9.179 12.843 8.667 21.012 4.101l6.64-3.711.002-10.245.003-10.246-20.703-12.402-20.703-12.402V267.147l2.539 1.309c1.396.72 8.622 4.772 16.056 9.005 7.435 4.232 13.669 7.695 13.853 7.695.184 0 .429-7.696.544-17.102l.211-17.102 16.211 8.994 16.211 8.995.031 25.1.032 25.1 6.348 4.44 6.348 4.441 6.511-4.441 6.511-4.44v-16.276c0-8.952.287-16.159.638-16.016.35.143 10.557 5.665 22.68 12.271l22.043 12.011 10.327-4.261 10.327-4.26.217-11.026.216-11.027-21.539-12.811c-15.872-9.441-21.273-13.017-20.529-13.594.556-.431 6.547-3.89 13.315-7.688l12.305-6.905v-19.04l-7.368-4.858c-8.865-5.846-5.147-6.76-31.114 7.647l-21.593 11.98-14.299-7.554c-7.864-4.155-14.585-7.828-14.935-8.164-.35-.335 5.89-4.378 13.867-8.983 7.977-4.606 14.504-8.654 14.504-8.995 0-.342-6.32-4.578-14.044-9.414-7.724-4.837-13.879-9.06-13.678-9.385.576-.932 27.993-18.211 28.88-18.201.438.005 10.359 5.689 22.048 12.63 24.527 14.567 21.327 13.657 30.505 8.671l7.227-3.926-.009-9.929-.008-9.929-13.077-7.227c-7.193-3.975-13.538-7.524-14.099-7.886-.697-.449 6.073-4.737 21.276-13.476l22.297-12.817.005-10.547.005-10.547-8.979-4.968-8.979-4.969-6.443 3.347c-3.543 1.841-14.302 7.504-23.909 12.586-9.607 5.081-17.605 9.239-17.774 9.239-.168 0-.306-7.706-.306-17.124V80.595l-6.643-3.62-6.642-3.621-6.238 3.738-6.239 3.739-.205 27.251-.205 27.251-16.016 8.418-16.015 8.418-.21-18.663c-.115-10.264-.36-18.662-.544-18.662-.185 0-6.419 3.463-13.854 7.695-7.434 4.233-14.66 8.285-16.056 9.005l-2.539 1.309.002-16.622.002-16.622 24.998-12.86 24.998-12.86-.014-8.624-.013-8.624-8.962-5.217-8.963-5.217-15.604 8.147c-8.582 4.48-15.793 8.146-16.024 8.146-.231 0-.422-11.689-.424-25.977l-.003-25.976-8.196-5.274c-9.928-6.387-8.452-6.388-18.149.005m31.016 182.614 7.115 12.891-6.749 12.126-6.748 12.126-14.107-.213-14.107-.213-7.768-11.909-7.767-11.909 2.146-3.716c1.181-2.044 4.569-7.846 7.529-12.895l5.382-9.18h27.96l7.114 12.892"/></svg>