<svg width="1440" height="360" xml:space="preserve" xmlns:xlink="http://www.w3.org/1999/xlink" xmlns="http://www.w3.org/2000/svg"><defs><linearGradient id="a"><stop style="stop-color:#0074ff;stop-opacity:1" offset="0"/><stop style="stop-color:#09a4dd;stop-opacity:1" offset=".293"/><stop style="stop-color:#0dbccc;stop-opacity:1" offset=".56"/><stop style="stop-color:#12d4bb;stop-opacity:1" offset="1"/></linearGradient><linearGradient xlink:href="#a" id="b" x1="397.79" y1="354" x2="106.21" y2="117.5" gradientUnits="userSpaceOnUse" gradientTransform="translate(806.977 -31.81) scale(.82738)"/></defs><path style="display:inline;fill:url(#b);fill-opacity:1;stroke:none;stroke-width:1" d="M1045.917 329.804c-19.304-2.542-40.196-10.145-52.311-19.039-3.77-2.767-3.951-3.083-3.951-6.893 0-3.443.35-4.288 2.545-6.135 4.249-3.575 8.142-3.017 16.392 2.348 10.089 6.562 23.015 10.972 38.023 12.97 8.994 1.199 28.243.532 36.463-1.263 40.036-8.739 71.584-36.968 83.972-75.138 4.259-13.12 5.042-18.49 5.042-34.553 0-16.03-.792-21.485-4.986-34.336-4.624-14.168-11.84-28.033-18.526-35.595-4.952-5.6-5.839-7.061-5.848-9.63-.016-4.15 3.655-7.314 8.485-7.314 3.044 0 3.877.485 7.819 4.555 11.809 12.192 22.954 35.103 27.71 56.963 1.553 7.131 1.828 10.95 1.828 25.357 0 19.14-1.158 26.541-6.619 42.319-6.401 18.495-16.103 33.824-30.553 48.273-14.448 14.448-29.78 24.152-48.265 30.55-14.342 4.964-22.619 6.365-39.432 6.67-8.19.15-16.196.1-17.788-.11zm.194-25.52c-19.375-3.511-37.142-12.74-51.605-26.806-3.964-3.854-4.851-5.212-4.851-7.42 0-3.572 1.18-5.615 4.12-7.136 5.442-2.814 5.54-2.756 34.86 20.676 19.216 15.357 26.844 21.903 25.461 21.85-1.086-.04-4.679-.564-7.985-1.163zm-12.195-32.633c-22.751-18.276-42.575-34.507-44.054-36.07-4.26-4.502-3.599-10.6 1.43-13.2 4.078-2.11 6.904-1.574 11.733 2.223 14.274 11.221 92.51 74.418 92.891 75.036.522.844-10.755 4.068-16.69 4.771l-3.945.468zm-19.597-56.381c-52.928-43.238-97.443-79.893-98.922-81.457-2.848-3.01-3.575-7.11-1.837-10.359 1.13-2.112 5.085-4.091 8.174-4.091 2.99 0-8.06-8.81 109.994 87.702l93.614 76.533-2.604 2.148c-1.433 1.182-4.76 3.496-7.396 5.143l-4.79 2.995zm48.973-.808c-39.818-31.814-73.42-58.971-74.672-60.35-3.82-4.21-2.938-10.341 1.846-12.815 3.82-1.975 6.946-1.548 10.916 1.492 4.159 3.185 143.863 114.617 144.987 115.646 1.197 1.095-7.957 14.024-9.854 13.917-.455-.026-33.406-26.076-73.223-57.89zm-16.134-51.67C988.91 115.65 940.043 75.8 938.564 74.239c-4.26-4.497-3.598-10.596 1.431-13.197 4.478-2.315 6.854-1.647 13.821 3.887 13.578 10.784 202.635 163.93 204.163 165.382 1.552 1.474 1.559 1.677.208 5.895-.77 2.403-2.238 6.154-3.262 8.336l-1.863 3.967zm-77.774 58.225c-8.09-6.292-48.566-40.796-49.62-42.3-1.451-2.073-1.66-6.597-.412-8.93 1.12-2.092 5.076-4.09 8.096-4.09 1.327 0 3.486.831 4.799 1.849 7.793 6.038 48.472 40.717 49.524 42.218 1.902 2.717 1.604 7.57-.624 10.16-2.75 3.198-8.383 3.72-11.763 1.093zm162.166-30.133c-16.382-13.828-30.81-26.275-32.06-27.66-2.426-2.684-3.037-6.97-1.424-9.984 1.113-2.08 5.07-4.091 8.048-4.091 2.973 0 2.45-.4 32.32 24.742l24.97 21.02v9.319c0 8.957-.396 12.017-1.536 11.866-.292-.039-13.935-11.384-30.317-25.212zm-1.24-41.818c-15.7-12.693-29.57-24.202-30.82-25.576-3.823-4.197-2.939-10.332 1.845-12.806 5.095-2.635 6.564-1.976 20.498 9.193 16.175 12.966 18.329 15.022 23.304 22.238 5.916 8.58 15.328 28.501 14.042 29.72-.179.17-13.17-10.076-28.87-22.769zm-50.15-.952c-5.864-4.398-74.08-62.984-75.203-64.586-1.428-2.038-1.624-6.574-.385-8.89 1.113-2.079 5.07-4.09 8.048-4.09 1.299 0 3.479.837 4.844 1.861 5.865 4.399 74.082 62.984 75.204 64.586 1.447 2.066 1.62 6.583.343 8.969-1.004 1.874-5.497 4.012-8.434 4.012-1.064 0-3.051-.838-4.417-1.862zm-109.949-7.337c-10.324-7.963-80.091-65.755-81.077-67.162-1.437-2.052-1.638-6.583-.395-8.905 1.12-2.092 5.076-4.091 8.096-4.091 1.327 0 3.486.829 4.799 1.842 10.395 8.023 80.003 65.675 80.98 67.071 1.888 2.695 1.581 7.555-.64 10.137-2.742 3.188-8.378 3.718-11.763 1.108zM861.553 52.723C850.683 44.273 849 42.369 849 38.527c0-3.705 1.15-5.736 4.12-7.272 4.727-2.444 6.697-1.74 16.534 5.907 10.974 8.53 12.441 10.232 12.441 14.421 0 4.523-2.734 7.426-7.5 7.964-3.643.41-3.924.263-13.042-6.824z"/><path style="fill:#bebebe;fill-opacity:1" d="M42 224.421V118.904l24.619.267 24.618.268 30.08 70.75c16.545 38.912 30.329 70.75 30.632 70.749.303 0 14.138-31.838 30.744-70.75l30.192-70.75 24.558-.267 24.557-.267v211.035h-31.99l-.255-91.556-.255-91.557-30.483 71.557-30.483 71.556h-33.069l-30.482-71.574L74.5 146.791l-.255 91.574-.255 91.574H42zm275 .018v-105.5h152v24H350v62h114v25H350v76h119v24H317zm292 12v-93.5h-85v-24h203v24h-85v187h-33zm173-12v-105.5h152v24H815v62h114v25H815v76h119v24H782zm442-.075V118.789l48.75.436c53.096.476 55.609.708 70.584 6.523 18.923 7.348 29.97 19.576 34.278 37.94 2.23 9.51 1.49 27.548-1.468 35.75-4.6 12.762-14.52 23.033-27.131 28.089-3.582 1.436-7.294 3.017-8.25 3.512-.954.495-2.912.9-4.348.9-2.316 0-1.929.514 3.4 4.52 3.307 2.486 7.29 6.042 8.85 7.901 5.162 6.155 13.424 18.527 15.49 23.195 1.118 2.53 3.508 7.137 5.311 10.241 3.042 5.236 6.006 10.844 21.615 40.893l5.844 11.25h-32.656l-6.495-12.75c-12.992-25.501-22.031-42.805-23.639-45.25-.904-1.375-2.516-4.217-3.582-6.316-1.067-2.099-4.665-6.79-7.996-10.426-10.661-11.635-19.952-14.258-50.499-14.258H1254v89h-30V224.364zm93-9.628c15.823-4.144 24.29-12.854 26.994-27.766 2.255-12.434-.827-24.01-8.397-31.535-10.19-10.131-16.403-11.612-51.347-12.237l-27.25-.488v74.439l27.25-.486c19.113-.341 28.892-.916 32.75-1.927z"/></svg>