<?xml version="1.0" encoding="UTF-8" standalone="no"?>
<svg
version="1.1"
id="svg30180"
width="1440"
height="360"
viewBox="0 0 1440 360"
sodipodi:docname="meteor_2.png"
xml:space="preserve"
inkscape:export-filename="meteor.svg"
inkscape:export-xdpi="96"
inkscape:export-ydpi="96"
xmlns:inkscape="http://www.inkscape.org/namespaces/inkscape"
xmlns:sodipodi="http://sodipodi.sourceforge.net/DTD/sodipodi-0.dtd"
xmlns:xlink="http://www.w3.org/1999/xlink"
xmlns="http://www.w3.org/2000/svg"
xmlns:svg="http://www.w3.org/2000/svg"><defs
id="defs30184"><linearGradient
inkscape:collect="always"
id="linearGradient27048"><stop
style="stop-color:#0074ff;stop-opacity:1;"
offset="0"
id="stop27044" /><stop
style="stop-color:#09a4dd;stop-opacity:1;"
offset="0.29331928"
id="stop28685" /><stop
style="stop-color:#0dbccc;stop-opacity:1;"
offset="0.56044501"
id="stop28687" /><stop
style="stop-color:#12d4bb;stop-opacity:1;"
offset="1"
id="stop27046" /></linearGradient><linearGradient
inkscape:collect="always"
xlink:href="#linearGradient27048"
id="linearGradient27050"
x1="397.79004"
y1="354"
x2="106.20996"
y2="117.5"
gradientUnits="userSpaceOnUse"
gradientTransform="matrix(0.8273807,0,0,0.8273807,806.9773,-31.809473)" /></defs><sodipodi:namedview
id="namedview30182"
pagecolor="#505050"
bordercolor="#ffffff"
borderopacity="1"
inkscape:showpageshadow="0"
inkscape:pageopacity="0"
inkscape:pagecheckerboard="1"
inkscape:deskcolor="#505050"
showgrid="false" /><g
inkscape:groupmode="layer"
inkscape:label="Image"
id="g30186"><path
style="display:inline;fill:url(#linearGradient27050);fill-opacity:1;stroke:none;stroke-width:1"
d="m 1045.9165,329.8038 c -19.304,-2.54173 -40.1954,-10.1452 -52.31077,-19.03879 -3.77,-2.76737 -3.9511,-3.08324 -3.9511,-6.89314 0,-3.44295 0.3507,-4.28791 2.5457,-6.1349 4.2485,-3.57488 8.14217,-3.01705 16.39157,2.34839 10.0886,6.5617 23.0151,10.97116 38.0228,12.97026 8.9945,1.19812 28.2431,0.53126 36.4637,-1.26327 40.0351,-8.73934 71.5833,-36.96878 83.9718,-75.13831 4.2586,-13.12055 5.0419,-18.48921 5.0419,-34.55309 0,-16.03024 -0.7921,-21.48481 -4.9863,-34.33629 -4.624,-14.16803 -11.8401,-28.03279 -18.5261,-35.59497 -4.9514,-5.60025 -5.8383,-7.06086 -5.848,-9.63058 -0.016,-4.14915 3.6556,-7.31312 8.4857,-7.31312 3.0432,0 3.8762,0.48536 7.8184,4.55543 11.8087,12.19188 22.9544,35.10282 27.7108,56.96216 1.5519,7.13189 1.8269,10.9499 1.8269,25.35737 0,19.13946 -1.1576,26.5414 -6.6184,42.31867 -6.4014,18.49496 -16.1032,33.82391 -30.5532,48.27383 -14.4475,14.44752 -29.7791,24.15196 -48.2648,30.55008 -14.3418,4.96384 -22.6189,6.36399 -39.4319,6.67027 -8.191,0.14922 -16.196,0.0997 -17.7887,-0.11002 z m 0.1944,-25.51921 c -19.3747,-3.51205 -37.1419,-12.7412 -51.60507,-26.80622 -3.9637,-3.85465 -4.8512,-5.21193 -4.8512,-7.42034 0,-3.57196 1.1801,-5.61548 4.1204,-7.13604 5.4417,-2.81396 5.5397,-2.75579 34.85967,20.67597 19.2167,15.35743 26.844,21.90322 25.4613,21.85091 -1.0857,-0.041 -4.679,-0.56499 -7.9851,-1.16428 z m -12.1952,-32.63408 c -22.7509,-18.27546 -42.57517,-34.507 -44.05417,-36.07014 -4.2592,-4.50172 -3.5981,-10.59919 1.4313,-13.20002 4.0774,-2.10846 6.9032,-1.57291 11.73247,2.22354 14.274,11.22127 92.5094,74.41857 92.8907,75.03564 0.5221,0.84474 -10.755,4.06889 -16.6905,4.77186 l -3.9448,0.4672 z m -19.5967,-56.38083 c -52.92795,-43.23771 -97.44276,-79.89317 -98.9217,-81.45659 -2.84836,-3.01104 -3.57543,-7.11098 -1.83708,-10.35912 1.13013,-2.11169 5.08468,-4.09108 8.17337,-4.09108 2.98988,0 -8.05903,-8.80969 109.99411,87.70235 l 93.6146,76.53272 -2.6046,2.14822 c -1.4326,1.18152 -4.7604,3.49581 -7.3952,5.14288 l -4.7907,2.99464 z m 48.9726,-0.80783 c -39.8177,-31.81369 -73.41977,-58.97127 -74.67117,-60.35015 -3.821,-4.21033 -2.9383,-10.34106 1.8451,-12.81467 3.8199,-1.97533 6.9466,-1.548 10.91597,1.49185 4.1592,3.18523 143.8638,114.61745 144.987,115.64562 1.197,1.09563 -7.957,14.02445 -9.8537,13.9172 -0.4551,-0.0257 -33.4055,-26.07617 -73.2232,-57.88985 z m -16.1339,-51.66891 C 988.91013,115.64946 940.0429,75.79988 938.56397,74.23831 c -4.25964,-4.49759 -3.59817,-10.596342 1.43135,-13.197215 4.47759,-2.31545 6.85407,-1.64718 13.82099,3.886521 13.57738,10.784314 202.63459,163.930624 204.16239,165.382364 1.5518,1.47443 1.5589,1.67684 0.2078,5.89551 -0.7696,2.40277 -2.2374,6.15385 -3.2617,8.33576 l -1.8624,3.96709 z m -77.77377,58.22374 c -8.09056,-6.29142 -48.56608,-40.79611 -49.61898,-42.29934 -1.45214,-2.07322 -1.66141,-6.59751 -0.41307,-8.93007 1.11965,-2.09205 5.07587,-4.09107 8.09661,-4.09107 1.32641,0 3.48575,0.83228 4.79854,1.84949 7.7934,6.03877 48.4718,40.71686 49.5236,42.21865 1.9026,2.71629 1.6046,7.56983 -0.6239,10.16056 -2.7501,3.19713 -8.383,3.71996 -11.7628,1.09178 z m 162.16657,-30.13273 c -16.3821,-13.82794 -30.8096,-26.27489 -32.061,-27.65992 -2.4256,-2.6845 -3.0365,-6.97022 -1.4234,-9.98437 1.1128,-2.07926 5.0702,-4.09108 8.0474,-4.09108 2.9732,0 2.4506,-0.4001 32.3202,24.74278 l 24.971,21.01955 v 9.31902 c 0,8.9569 -0.3963,12.01697 -1.5365,11.86611 -0.2926,-0.0387 -13.9356,-11.38416 -30.3177,-25.21209 z m -1.2411,-41.81787 c -15.6995,-12.69279 -29.5685,-24.20207 -30.8199,-25.57616 -3.8224,-4.19707 -2.9384,-10.33237 1.845,-12.80597 5.0954,-2.63491 6.5648,-1.97591 20.4981,9.1932 16.1754,12.9663 18.3293,15.02159 23.3047,22.23805 5.9155,8.57998 15.3275,28.50105 14.0416,29.72048 -0.1786,0.16949 -13.1699,-10.07683 -28.8695,-22.7696 z m -50.1489,-0.95172 c -5.8649,-4.3985 -74.0814,-62.98387 -75.2036,-64.58607 -1.4276,-2.0383 -1.624,-6.57434 -0.3849,-8.8898 1.1129,-2.07926 5.0702,-4.09108 8.0475,-4.09108 1.2994,0 3.4795,0.83773 4.8447,1.86161 5.865,4.3985 74.0815,62.98389 75.2037,64.58609 1.4467,2.06541 1.6193,6.5831 0.3427,8.9684 -1.0032,1.87461 -5.4966,4.01245 -8.4335,4.01245 -1.0639,0 -3.0513,-0.83771 -4.4166,-1.8616 z m -109.94927,-7.33765 c -10.32465,-7.96227 -80.09171,-65.7552 -81.07678,-67.16159 -1.43704,-2.05166 -1.63836,-6.583166 -0.39566,-8.905193 1.11966,-2.092067 5.07586,-4.09108 8.09663,-4.09108 1.32639,0 3.48573,0.829012 4.79852,1.842243 10.39506,8.02313 80.00269,65.67468 80.98089,67.07131 1.8875,2.6947 1.5803,7.55453 -0.6408,10.13656 -2.7418,3.18763 -8.3776,3.71837 -11.7628,1.10775 z M 861.5534,52.722596 C 850.6834,44.272592 849,42.36901 849,38.52729 c 0,-3.705517 1.15059,-5.736166 4.12034,-7.271888 4.7268,-2.444318 6.69652,-1.740665 16.53384,5.906576 10.97333,8.530348 12.44105,10.231657 12.44105,14.421134 0,4.523063 -2.73446,7.426168 -7.50082,7.963396 -3.64285,0.410612 -3.92354,0.263735 -13.04101,-6.823912 z"
id="path27011" /><path
style="fill:#bebebe;fill-opacity:1"
d="M 42,224.42146 V 118.90399 l 24.618605,0.26747 24.618605,0.26747 30.08037,70.75 c 16.5442,38.9125 30.32833,70.74954 30.63139,70.74899 0.30307,-5.6e-4 14.13772,-31.83806 30.74367,-70.75 l 30.19265,-70.74899 24.55735,-0.26747 L 262,118.90399 V 224.42146 329.93893 H 246.00523 230.01047 L 229.75523,238.38264 229.5,146.82635 199.01688,218.38264 168.53375,289.93893 H 151.99954 135.46533 L 104.98266,218.36513 74.5,146.79133 l -0.255234,91.5738 -0.255234,91.5738 H 57.994766 42 Z m 275,0.0175 v -105.5 h 76 76 v 12 12 H 409.5 350 v 31 31 h 57 57 v 12.5 12.5 h -57 -57 v 38 38 h 59.5 59.5 v 12 12 h -76 -76 z m 292,12 v -93.5 H 566.5 524 v -12 -12 H 625.5 727 v 12 12 H 684.5 642 v 93.5 93.5 H 625.5 609 Z m 173,-12 v -105.5 h 76 76 v 12 12 H 874.5 815 v 31 31 h 57 57 v 12.5 12.5 h -57 -57 v 38 38 h 59.5 59.5 v 12 12 h -76 -76 z m 442,-0.0752 V 118.78859 l 48.75,0.43679 c 53.096,0.47573 55.6086,0.70792 70.5835,6.52267 18.9237,7.3481 29.9711,19.5759 34.2784,37.94085 2.2302,9.50892 1.4896,27.54662 -1.4678,35.75002 -4.6007,12.7614 -14.521,23.0316 -27.1313,28.08807 -3.582,1.43634 -7.2942,3.01662 -8.2492,3.51173 -0.9551,0.49511 -2.9122,0.9002 -4.3491,0.9002 -2.3153,0 -1.9284,0.51441 3.4006,4.52027 3.3073,2.48615 7.2894,6.04154 8.8491,7.90087 5.1629,6.15483 13.4253,18.5269 15.4904,23.19534 1.1185,2.52875 3.5089,7.13702 5.3118,10.24062 3.0419,5.23623 6.0058,10.84368 21.6147,40.8929 l 5.8437,11.25 h -16.3277 -16.3278 l -6.4955,-12.75 c -12.9916,-25.50089 -22.0311,-42.80452 -23.6388,-45.25 -0.9039,-1.375 -2.5159,-4.21722 -3.5823,-6.31604 -1.0663,-2.09882 -4.6643,-6.79053 -7.9956,-10.42601 -10.6612,-11.63482 -19.9517,-14.25794 -50.4987,-14.25794 H 1254 v 44.5 44.5 h -15 -15 V 224.36377 Z m 93,-9.6275 c 15.823,-4.14447 24.2903,-12.85399 26.9944,-27.76663 2.2546,-12.43332 -0.8278,-24.00895 -8.3972,-31.53428 -10.191,-10.13175 -16.4032,-11.61234 -51.3472,-12.23773 L 1257,142.70993 v 37.2195 37.2195 l 27.25,-0.48603 c 19.1135,-0.34091 28.8922,-0.91618 32.75,-1.92664 z"
id="path31600" /></g></svg>