<svg xmlns="http://www.w3.org/2000/svg" width="400" height="400"><defs><linearGradient id="a" x1="0%" y1="8%" x2="100%" y2="92%"><stop offset="15%" style="stop-color:#12d3bc;stop-opacity:1"/><stop offset="85%" style="stop-color:#0074ff;stop-opacity:1"/></linearGradient></defs><path style="fill:url(#a)" d="M193.359 1.085c-5.092 2.225-11.328 9.959-11.328 14.05 0 .77-1.294 1.289-4.101 1.645C81.442 29.014.781 121.308.781 219.478c0 9.465 1.003 11.407 6.334 12.257 4.57.729 6.599-.635 8.497-5.711 16.136-43.151 63.393-44.377 79.254-2.058 3.764 10.043 13.342 11.615 16.517 2.711 12.871-36.1 51.723-45.173 72.963-17.04l3.154 4.177-.017 72.585c-.019 80.595.294 75.657-5.145 81.096-10.776 10.776-27.65 2.433-27.65-13.671 0-6.108-6.79-12.418-13.363-12.418-20.898 0-15.772 37.659 7.126 52.352 20.908 13.417 50.241 5.167 61.231-17.223 5.128-10.446 5.104-10.033 5.134-90.316l.028-71.985 3.47-4.713c19.701-26.763 58.408-19.307 70.395 13.558 3.532 9.685 12.99 12.77 16.117 5.257 9.859-23.683 20.173-33.285 37.641-35.042 18.359-1.847 39.512 14.062 43.197 32.489.736 3.677 4.571 6.488 8.024 5.88 4.753-.837 5.531-2.53 5.528-12.023-.031-95.577-79.92-189.421-172.382-202.491l-6.369-.9-1.359-3.557C215.2 2.464 202.898-3.082 193.359 1.085"/></svg>