<svg id="svg" xmlns="http://www.w3.org/2000/svg" xmlns:xlink="http://www.w3.org/1999/xlink" width="400" height="400" viewBox="0, 0, 400, 400">
	<defs>
		<linearGradient id="lgrad" x1="0%" y1="8%" x2="100%" y2="92%">
			<stop offset="15%" style="stop-color:rgb(18,211,188);stop-opacity:1.00"/>
			<stop offset="85%" style="stop-color:rgb(0,116,255);stop-opacity:1.00"/>
		</linearGradient>
	</defs>
	<path style="fill:url(#lgrad);" d="M193.359 1.085 C 188.267 3.310,182.031 11.044,182.031 15.135 C 182.031 15.905,180.737 16.424,177.930 16.780 C 81.442 29.014,0.781 121.308,0.781 219.478 C 0.781 228.943,1.784 230.885,7.115 231.735 C 11.685 232.464,13.714 231.100,15.612 226.024 C 31.748 182.873,79.005 181.647,94.866 223.966 C 98.630 234.009,108.208 235.581,111.383 226.677 C 124.254 190.577,163.106 181.504,184.346 209.637 L 187.500 213.814 187.483 286.399 C 187.464 366.994,187.777 362.056,182.338 367.495 C 171.562 378.271,154.688 369.928,154.688 353.824 C 154.688 347.716,147.898 341.406,141.325 341.406 C 120.427 341.406,125.553 379.065,148.451 393.758 C 169.359 407.175,198.692 398.925,209.682 376.535 C 214.810 366.089,214.786 366.502,214.816 286.219 L 214.844 214.234 218.314 209.521 C 238.015 182.758,276.722 190.214,288.709 223.079 C 292.241 232.764,301.699 235.849,304.826 228.336 C 314.685 204.653,324.999 195.051,342.467 193.294 C 360.826 191.447,381.979 207.356,385.664 225.783 C 386.400 229.460,390.235 232.271,393.688 231.663 C 398.441 230.826,399.219 229.133,399.216 219.640 C 399.185 124.063,319.296 30.219,226.834 17.149 L 220.465 16.249 219.106 12.692 C 215.200 2.464,202.898 -3.082,193.359 1.085">
	</path>
</svg>